<mxfile host="app.diagrams.net" modified="2023-10-10T19:57:37.868Z" agent="Mozilla/5.0 (Macintosh; Intel Mac OS X 10_15_7) AppleWebKit/537.36 (KHTML, like Gecko) Chrome/117.0.0.0 Safari/537.36" etag="dDDDexJufsIeJkqJrq6C" version="22.0.0" type="github">
  <diagram name="Page-1" id="Z-0yPP8kXLogtOT6OWkJ">
    <mxGraphModel dx="3399" dy="662" grid="1" gridSize="10" guides="1" tooltips="1" connect="1" arrows="1" fold="1" page="1" pageScale="1" pageWidth="827" pageHeight="1169" math="0" shadow="0">
      <root>
        <mxCell id="0" />
        <mxCell id="1" parent="0" />
        <mxCell id="r1KL7zgRgzhYR2Re5zrl-48" value="sendAnswerUseCase" style="rounded=0;whiteSpace=wrap;html=1;verticalAlign=top;fontStyle=1" vertex="1" parent="1">
          <mxGeometry x="-790" y="440" width="260" height="170" as="geometry" />
        </mxCell>
        <mxCell id="r1KL7zgRgzhYR2Re5zrl-30" value="Objects" style="rounded=0;whiteSpace=wrap;html=1;verticalAlign=top;fontStyle=1" vertex="1" parent="1">
          <mxGeometry x="340" y="560" width="810" height="420" as="geometry" />
        </mxCell>
        <mxCell id="r1KL7zgRgzhYR2Re5zrl-5" value="Exposed APIs" style="rounded=0;whiteSpace=wrap;html=1;verticalAlign=top;fontStyle=1" vertex="1" parent="1">
          <mxGeometry x="260" y="300" width="260" height="200" as="geometry" />
        </mxCell>
        <mxCell id="r1KL7zgRgzhYR2Re5zrl-1" value="&lt;h1 style=&quot;border-color: var(--border-color);&quot;&gt;Forms System Design Document&lt;/h1&gt;&lt;h1&gt;&lt;p style=&quot;border-color: var(--border-color); font-size: 12px; font-weight: 400;&quot;&gt;This document will look at what a system design will look like for a service that delivers forms (like chimp survey or google forms) as it&#39;s api and how an android app would consume this api.&lt;/p&gt;&lt;/h1&gt;" style="text;html=1;strokeColor=none;fillColor=none;spacing=5;spacingTop=-20;whiteSpace=wrap;overflow=hidden;rounded=0;" vertex="1" parent="1">
          <mxGeometry x="40" y="40" width="390" height="120" as="geometry" />
        </mxCell>
        <mxCell id="r1KL7zgRgzhYR2Re5zrl-2" value="Android App" style="shape=umlActor;verticalLabelPosition=bottom;verticalAlign=top;html=1;outlineConnect=0;" vertex="1" parent="1">
          <mxGeometry x="130" y="370" width="30" height="60" as="geometry" />
        </mxCell>
        <mxCell id="r1KL7zgRgzhYR2Re5zrl-3" value="getForms(userId: Int) : List&amp;lt;Form&amp;gt;" style="rounded=1;whiteSpace=wrap;html=1;" vertex="1" parent="1">
          <mxGeometry x="280" y="340" width="220" height="60" as="geometry" />
        </mxCell>
        <mxCell id="r1KL7zgRgzhYR2Re5zrl-4" value="saveAnswers(userId: Int, &lt;br&gt;answers: List&amp;lt;Answers&amp;gt;)" style="rounded=1;whiteSpace=wrap;html=1;" vertex="1" parent="1">
          <mxGeometry x="280" y="420" width="220" height="60" as="geometry" />
        </mxCell>
        <mxCell id="r1KL7zgRgzhYR2Re5zrl-6" value="db" style="shape=cylinder3;whiteSpace=wrap;html=1;boundedLbl=1;backgroundOutline=1;size=15;" vertex="1" parent="1">
          <mxGeometry x="920" y="360" width="60" height="80" as="geometry" />
        </mxCell>
        <mxCell id="r1KL7zgRgzhYR2Re5zrl-23" value="&lt;p style=&quot;margin: 4px 0px 0px; text-align: center;&quot;&gt;&lt;b style=&quot;&quot;&gt;Form&lt;/b&gt;&lt;/p&gt;&lt;hr&gt;&lt;p style=&quot;margin:0px;margin-left:8px;&quot;&gt;formId: Int&lt;/p&gt;&lt;p style=&quot;margin:0px;margin-left:8px;&quot;&gt;&lt;span style=&quot;background-color: initial;&quot;&gt;questions: List&amp;lt;Question&amp;gt;&lt;/span&gt;&lt;/p&gt;" style="verticalAlign=top;align=left;overflow=fill;fontSize=12;fontFamily=Helvetica;html=1;whiteSpace=wrap;" vertex="1" parent="1">
          <mxGeometry x="560" y="630" width="160" height="70" as="geometry" />
        </mxCell>
        <mxCell id="r1KL7zgRgzhYR2Re5zrl-24" value="&lt;p style=&quot;margin: 4px 0px 0px; text-align: center;&quot;&gt;&lt;b style=&quot;&quot;&gt;Question&lt;/b&gt;&lt;/p&gt;&lt;hr&gt;&lt;p style=&quot;margin:0px;margin-left:8px;&quot;&gt;questionId: Int&lt;/p&gt;&lt;p style=&quot;margin:0px;margin-left:8px;&quot;&gt;&lt;span style=&quot;background-color: initial;&quot;&gt;title: String?&lt;/span&gt;&lt;/p&gt;&lt;p style=&quot;margin:0px;margin-left:8px;&quot;&gt;subtitle: String?&lt;/p&gt;&lt;p style=&quot;margin:0px;margin-left:8px;&quot;&gt;mandatory: Boolean&lt;/p&gt;&lt;p style=&quot;margin:0px;margin-left:8px;&quot;&gt;inputType: InputType&lt;/p&gt;" style="verticalAlign=top;align=left;overflow=fill;fontSize=12;fontFamily=Helvetica;html=1;whiteSpace=wrap;" vertex="1" parent="1">
          <mxGeometry x="740" y="630" width="160" height="110" as="geometry" />
        </mxCell>
        <mxCell id="r1KL7zgRgzhYR2Re5zrl-25" value="&lt;p style=&quot;margin: 4px 0px 0px; text-align: center;&quot;&gt;&lt;b style=&quot;&quot;&gt;SingleLine : InputType&lt;/b&gt;&lt;/p&gt;&lt;hr&gt;&lt;p style=&quot;margin:0px;margin-left:8px;&quot;&gt;inputType: String = &quot;SingleLine&quot;&lt;/p&gt;&lt;p style=&quot;margin:0px;margin-left:8px;&quot;&gt;&lt;span style=&quot;background-color: initial;&quot;&gt;title: String?&lt;/span&gt;&lt;/p&gt;&lt;p style=&quot;margin:0px;margin-left:8px;&quot;&gt;subtitle: String?&lt;/p&gt;&lt;p style=&quot;margin:0px;margin-left:8px;&quot;&gt;hint: String?&lt;/p&gt;&lt;p style=&quot;margin:0px;margin-left:8px;&quot;&gt;footer: String?&lt;/p&gt;&lt;p style=&quot;margin:0px;margin-left:8px;&quot;&gt;charLimit: Int?&lt;/p&gt;" style="verticalAlign=top;align=left;overflow=fill;fontSize=12;fontFamily=Helvetica;html=1;whiteSpace=wrap;" vertex="1" parent="1">
          <mxGeometry x="920" y="630" width="210" height="120" as="geometry" />
        </mxCell>
        <mxCell id="r1KL7zgRgzhYR2Re5zrl-26" value="&lt;p style=&quot;margin: 4px 0px 0px; text-align: center;&quot;&gt;&lt;b style=&quot;&quot;&gt;MultipleChoice : InputType&lt;/b&gt;&lt;/p&gt;&lt;hr&gt;&lt;p style=&quot;margin:0px;margin-left:8px;&quot;&gt;inputType: String = &quot;MultipleChoice&quot;&lt;/p&gt;&lt;p style=&quot;margin:0px;margin-left:8px;&quot;&gt;&lt;span style=&quot;background-color: initial;&quot;&gt;title: String?&lt;/span&gt;&lt;/p&gt;&lt;p style=&quot;margin:0px;margin-left:8px;&quot;&gt;subtitle: String?&lt;/p&gt;&lt;p style=&quot;margin:0px;margin-left:8px;&quot;&gt;&lt;span style=&quot;background-color: initial;&quot;&gt;footer: String?&lt;/span&gt;&lt;br&gt;&lt;/p&gt;&lt;p style=&quot;margin:0px;margin-left:8px;&quot;&gt;choices: List&amp;lt;String&amp;gt;&lt;/p&gt;" style="verticalAlign=top;align=left;overflow=fill;fontSize=12;fontFamily=Helvetica;html=1;whiteSpace=wrap;" vertex="1" parent="1">
          <mxGeometry x="920" y="850" width="210" height="110" as="geometry" />
        </mxCell>
        <mxCell id="r1KL7zgRgzhYR2Re5zrl-27" value="&lt;p style=&quot;margin: 4px 0px 0px; text-align: center;&quot;&gt;&lt;b style=&quot;&quot;&gt;MultiLine : SingleLine&lt;/b&gt;&lt;/p&gt;&lt;hr&gt;&lt;p style=&quot;margin:0px;margin-left:8px;&quot;&gt;inputType: String = &quot;MultiLine&quot;&lt;/p&gt;" style="verticalAlign=top;align=left;overflow=fill;fontSize=12;fontFamily=Helvetica;html=1;whiteSpace=wrap;" vertex="1" parent="1">
          <mxGeometry x="920" y="770" width="210" height="60" as="geometry" />
        </mxCell>
        <mxCell id="r1KL7zgRgzhYR2Re5zrl-28" value="&lt;p style=&quot;margin: 4px 0px 0px; text-align: center;&quot;&gt;&lt;b style=&quot;&quot;&gt;Answer&lt;/b&gt;&lt;/p&gt;&lt;hr&gt;&lt;p style=&quot;margin:0px;margin-left:8px;&quot;&gt;userId: Int&lt;/p&gt;&lt;p style=&quot;margin:0px;margin-left:8px;&quot;&gt;answerId: Int&lt;/p&gt;&lt;p style=&quot;margin:0px;margin-left:8px;&quot;&gt;questionId: Int&lt;/p&gt;&lt;p style=&quot;margin:0px;margin-left:8px;&quot;&gt;&lt;span style=&quot;background-color: initial;&quot;&gt;answer: String?&lt;/span&gt;&lt;/p&gt;&lt;p style=&quot;margin:0px;margin-left:8px;&quot;&gt;&lt;br&gt;&lt;/p&gt;" style="verticalAlign=top;align=left;overflow=fill;fontSize=12;fontFamily=Helvetica;html=1;whiteSpace=wrap;" vertex="1" parent="1">
          <mxGeometry x="360" y="630" width="160" height="90" as="geometry" />
        </mxCell>
        <mxCell id="r1KL7zgRgzhYR2Re5zrl-29" value="validateAnswers(&lt;br&gt;answers: List&amp;lt;Answer&amp;gt;) : List&amp;lt;Answer&amp;gt;" style="rounded=1;whiteSpace=wrap;html=1;" vertex="1" parent="1">
          <mxGeometry x="610" y="420" width="230" height="60" as="geometry" />
        </mxCell>
        <mxCell id="r1KL7zgRgzhYR2Re5zrl-31" value="&lt;b&gt;Form Objects&lt;/b&gt;" style="text;html=1;strokeColor=none;fillColor=none;align=center;verticalAlign=middle;whiteSpace=wrap;rounded=0;" vertex="1" parent="1">
          <mxGeometry x="780" y="590" width="80" height="30" as="geometry" />
        </mxCell>
        <mxCell id="r1KL7zgRgzhYR2Re5zrl-33" value="" style="endArrow=none;html=1;rounded=0;" edge="1" parent="1">
          <mxGeometry width="50" height="50" relative="1" as="geometry">
            <mxPoint x="540" y="900" as="sourcePoint" />
            <mxPoint x="540" y="630" as="targetPoint" />
            <Array as="points">
              <mxPoint x="540" y="690" />
            </Array>
          </mxGeometry>
        </mxCell>
        <mxCell id="r1KL7zgRgzhYR2Re5zrl-34" value="&lt;b&gt;Answer Objects&lt;/b&gt;" style="text;html=1;strokeColor=none;fillColor=none;align=center;verticalAlign=middle;whiteSpace=wrap;rounded=0;" vertex="1" parent="1">
          <mxGeometry x="390" y="590" width="100" height="30" as="geometry" />
        </mxCell>
        <mxCell id="r1KL7zgRgzhYR2Re5zrl-35" value="Availability Or Consistency&lt;br&gt;&lt;br&gt;&lt;span style=&quot;font-weight: 400;&quot;&gt;Availability is more important.&lt;br&gt;&lt;br&gt;The forms and answers will only be used internally, so we don&#39;t need to worry about internet outages whilst replicating the data like we would in an online shop with limited stock like Amazon.&lt;br&gt;&lt;br&gt;Instead if the data can be written to the local database then accept the data, that data can be replicated to the head office database when the internet outage breaking the server connections is restored, the user doesn&#39;t need to be affected by this.&lt;br&gt;&lt;/span&gt;" style="text;html=1;strokeColor=none;fillColor=none;align=left;verticalAlign=top;whiteSpace=wrap;rounded=0;fontStyle=1" vertex="1" parent="1">
          <mxGeometry x="1241" y="320" width="309" height="210" as="geometry" />
        </mxCell>
        <mxCell id="r1KL7zgRgzhYR2Re5zrl-36" value="Retrofit Facade Interface" style="rounded=0;whiteSpace=wrap;html=1;verticalAlign=top;fontStyle=1" vertex="1" parent="1">
          <mxGeometry x="-230" y="300" width="260" height="200" as="geometry" />
        </mxCell>
        <mxCell id="r1KL7zgRgzhYR2Re5zrl-37" value="@GET suspend fun &lt;br&gt;getForms(userId: Int) : List&amp;lt;Form&amp;gt;" style="rounded=1;whiteSpace=wrap;html=1;" vertex="1" parent="1">
          <mxGeometry x="-210" y="340" width="220" height="60" as="geometry" />
        </mxCell>
        <mxCell id="r1KL7zgRgzhYR2Re5zrl-38" value="@POST suspend fun&lt;br&gt;saveAnswers(userId: Int, &lt;br&gt;answers: List&amp;lt;Map&amp;lt;Int, String&amp;gt;&amp;gt;)" style="rounded=1;whiteSpace=wrap;html=1;" vertex="1" parent="1">
          <mxGeometry x="-210" y="420" width="220" height="60" as="geometry" />
        </mxCell>
        <mxCell id="r1KL7zgRgzhYR2Re5zrl-39" value="SingleLine Composable" style="rounded=0;whiteSpace=wrap;html=1;verticalAlign=top;fontStyle=1" vertex="1" parent="1">
          <mxGeometry x="-1900" y="300" width="260" height="190" as="geometry" />
        </mxCell>
        <mxCell id="r1KL7zgRgzhYR2Re5zrl-40" value="@Composable&lt;br&gt;fun SingleLine(&lt;br&gt;&lt;span style=&quot;white-space: pre;&quot;&gt;&#x9;&lt;/span&gt;title: String?&lt;br&gt;&lt;span style=&quot;white-space: pre;&quot;&gt;&#x9;&lt;/span&gt;subtitle: String?&lt;br&gt;&lt;span style=&quot;white-space: pre;&quot;&gt;&#x9;&lt;/span&gt;hint: String?&lt;br&gt;&lt;span style=&quot;white-space: pre;&quot;&gt;&#x9;&lt;/span&gt;footer: String?&lt;br&gt;&lt;span style=&quot;white-space: pre;&quot;&gt;&#x9;&lt;/span&gt;charLimit: Int?&lt;br&gt;) {..}&lt;br&gt;&lt;span style=&quot;white-space: pre;&quot;&gt;&#x9;&lt;/span&gt;" style="rounded=1;whiteSpace=wrap;html=1;align=left;verticalAlign=top;" vertex="1" parent="1">
          <mxGeometry x="-1880" y="340" width="220" height="130" as="geometry" />
        </mxCell>
        <mxCell id="r1KL7zgRgzhYR2Re5zrl-41" value="The charLimit verification can be done inside of&lt;br&gt;the composable, this will allow us to instantly&lt;br&gt;tell the user that there is an issue instead telling&lt;br&gt;the user after they press the send button." style="text;html=1;align=left;verticalAlign=top;resizable=0;points=[];autosize=1;strokeColor=none;fillColor=none;" vertex="1" parent="1">
          <mxGeometry x="-1900" y="498" width="280" height="70" as="geometry" />
        </mxCell>
        <mxCell id="r1KL7zgRgzhYR2Re5zrl-42" value="FormRepo" style="rounded=0;whiteSpace=wrap;html=1;verticalAlign=top;fontStyle=1" vertex="1" parent="1">
          <mxGeometry x="-510" y="300" width="260" height="200" as="geometry" />
        </mxCell>
        <mxCell id="r1KL7zgRgzhYR2Re5zrl-43" value="suspend fun &lt;br&gt;getForms(userId: Int) : List&amp;lt;Form&amp;gt;" style="rounded=1;whiteSpace=wrap;html=1;" vertex="1" parent="1">
          <mxGeometry x="-490" y="340" width="220" height="60" as="geometry" />
        </mxCell>
        <mxCell id="r1KL7zgRgzhYR2Re5zrl-44" value="suspend fun&lt;br&gt;saveAnswers(userId: Int, &lt;br&gt;answers: List&amp;lt;Map&amp;lt;Int, String&amp;gt;&amp;gt;)" style="rounded=1;whiteSpace=wrap;html=1;" vertex="1" parent="1">
          <mxGeometry x="-490" y="420" width="220" height="60" as="geometry" />
        </mxCell>
        <mxCell id="r1KL7zgRgzhYR2Re5zrl-45" value="getFormUseCase (Optional)" style="rounded=0;whiteSpace=wrap;html=1;verticalAlign=top;fontStyle=1" vertex="1" parent="1">
          <mxGeometry x="-790" y="300" width="260" height="120" as="geometry" />
        </mxCell>
        <mxCell id="r1KL7zgRgzhYR2Re5zrl-46" value="suspend fun &lt;br&gt;execute(userId: Int) : List&amp;lt;Form&amp;gt;" style="rounded=1;whiteSpace=wrap;html=1;" vertex="1" parent="1">
          <mxGeometry x="-770" y="340" width="220" height="60" as="geometry" />
        </mxCell>
        <mxCell id="r1KL7zgRgzhYR2Re5zrl-47" value="suspend fun&lt;br&gt;execute(userId: Int, &lt;br&gt;answers: List&amp;lt;Map&amp;lt;Int, String&amp;gt;&amp;gt;) {&lt;br&gt;&lt;br&gt;&lt;i&gt;convert the list of AnswerModel to a list of Map&amp;lt;int, String&amp;gt; where Int is the questionId and String is the answer&lt;/i&gt; }" style="rounded=1;whiteSpace=wrap;html=1;" vertex="1" parent="1">
          <mxGeometry x="-770" y="480" width="220" height="120" as="geometry" />
        </mxCell>
        <mxCell id="r1KL7zgRgzhYR2Re5zrl-49" value="formViewModel(&lt;br&gt;getFormUseCase, sendAnswerUseCase)" style="rounded=0;whiteSpace=wrap;html=1;verticalAlign=top;fontStyle=1" vertex="1" parent="1">
          <mxGeometry x="-1070" y="300" width="260" height="200" as="geometry" />
        </mxCell>
        <mxCell id="r1KL7zgRgzhYR2Re5zrl-50" value="getFormUseCase.execute()" style="rounded=1;whiteSpace=wrap;html=1;" vertex="1" parent="1">
          <mxGeometry x="-1050" y="350" width="220" height="60" as="geometry" />
        </mxCell>
        <mxCell id="r1KL7zgRgzhYR2Re5zrl-51" value="sendAnswersUseCase(answers: List&amp;lt;AnswerModel&amp;gt;)" style="rounded=1;whiteSpace=wrap;html=1;" vertex="1" parent="1">
          <mxGeometry x="-1050" y="430" width="220" height="60" as="geometry" />
        </mxCell>
        <mxCell id="r1KL7zgRgzhYR2Re5zrl-52" value="formViewState" style="rounded=0;whiteSpace=wrap;html=1;verticalAlign=top;fontStyle=1" vertex="1" parent="1">
          <mxGeometry x="-1350" y="300" width="260" height="200" as="geometry" />
        </mxCell>
        <mxCell id="r1KL7zgRgzhYR2Re5zrl-53" value="viewState(questions: List&amp;lt;Questions&amp;gt; &lt;br&gt;= emptyList())" style="rounded=1;whiteSpace=wrap;html=1;" vertex="1" parent="1">
          <mxGeometry x="-1330" y="340" width="220" height="60" as="geometry" />
        </mxCell>
        <mxCell id="r1KL7zgRgzhYR2Re5zrl-54" value="uiActions(sendClicked(&lt;br&gt;answers: List&amp;lt;AnswerModel&amp;gt;))" style="rounded=1;whiteSpace=wrap;html=1;" vertex="1" parent="1">
          <mxGeometry x="-1330" y="420" width="220" height="60" as="geometry" />
        </mxCell>
        <mxCell id="r1KL7zgRgzhYR2Re5zrl-57" value="&lt;p style=&quot;margin: 4px 0px 0px; text-align: center;&quot;&gt;&lt;b style=&quot;&quot;&gt;AnswerModel&lt;/b&gt;&lt;/p&gt;&lt;hr&gt;&lt;p style=&quot;margin:0px;margin-left:8px;&quot;&gt;&lt;span style=&quot;background-color: initial;&quot;&gt;questionId: Int&lt;/span&gt;&lt;br&gt;&lt;/p&gt;&lt;p style=&quot;margin:0px;margin-left:8px;&quot;&gt;&lt;span style=&quot;background-color: initial;&quot;&gt;answer: String?&lt;/span&gt;&lt;/p&gt;&lt;p style=&quot;margin:0px;margin-left:8px;&quot;&gt;&lt;br&gt;&lt;/p&gt;" style="verticalAlign=top;align=left;overflow=fill;fontSize=12;fontFamily=Helvetica;html=1;whiteSpace=wrap;" vertex="1" parent="1">
          <mxGeometry x="-1140" y="530" width="160" height="65" as="geometry" />
        </mxCell>
        <mxCell id="r1KL7zgRgzhYR2Re5zrl-58" value="formScreen" style="rounded=0;whiteSpace=wrap;html=1;verticalAlign=top;fontStyle=1" vertex="1" parent="1">
          <mxGeometry x="-1630" y="298" width="260" height="200" as="geometry" />
        </mxCell>
        <mxCell id="r1KL7zgRgzhYR2Re5zrl-60" value="A when statement will check the inputType and allocate a composable to be displayed in a LazyList" style="text;html=1;strokeColor=none;fillColor=none;align=center;verticalAlign=middle;whiteSpace=wrap;rounded=0;" vertex="1" parent="1">
          <mxGeometry x="-1610" y="345" width="220" height="125" as="geometry" />
        </mxCell>
        <mxCell id="r1KL7zgRgzhYR2Re5zrl-61" value="SQL Or NonSql&lt;br&gt;&lt;span style=&quot;font-weight: 400;&quot;&gt;NonSQL is a better fit.&lt;br&gt;&lt;br&gt;NonSQL has the benefit of being flexible which is what we require as the forms can be configured in many ways and can be created when required. It&#39;s better to have a flexible system that can change as the businesses requirements change.&lt;br&gt;&lt;br&gt;NonSQL is also preferred in systems that don&#39;t require high levels of consistency.&lt;br&gt;&lt;br&gt;NonSQL allows us to scale horizontally cheaply and easily, given consistency isn&#39;t vital I don&#39;t think it makes sense to choose SQL as it&#39;s expensive to scale vertically.&lt;br&gt;&lt;/span&gt;" style="text;html=1;strokeColor=none;fillColor=none;align=left;verticalAlign=top;whiteSpace=wrap;rounded=0;fontStyle=1" vertex="1" parent="1">
          <mxGeometry x="1241" y="550" width="309" height="220" as="geometry" />
        </mxCell>
      </root>
    </mxGraphModel>
  </diagram>
</mxfile>
